<?xml version="1.0" encoding="utf-8"?>
<!-- Generator: Adobe Illustrator 19.1.0, SVG Export Plug-In . SVG Version: 6.00 Build 0)  -->
<svg version="1.1" id="Layer_1" xmlns="http://www.w3.org/2000/svg" xmlns:xlink="http://www.w3.org/1999/xlink" x="0px" y="0px"
	 viewBox="-302 216.8 186 181.2" style="enable-background:new -302 216.8 186 181.2;" xml:space="preserve">
<style type="text/css">
	.st0{fill:#CDE8F7;}
	.st1{clip-path:url(#SVGID_2_);fill:#A8D8E7;}
	.st2{fill:#31B1AF;}
	.st3{fill:#24928F;}
	.st4{fill:#316689;}
	.st5{fill:#0E3754;}
	.st6{fill:#29BDBD;}
	.st7{fill:#FEBE25;}
	.st8{fill:#E1E1E1;}
	.st9{fill:#E7A23E;}
	.st10{fill:#F9A02C;}
	.st11{fill:#1CAC72;}
	.st12{enable-background:new    ;}
	.st13{fill:#FFFFFF;}
</style>
<g>
	<path class="st0" d="M-211.9,396.7c-49.1,0-89-40.6-89-90.5c0-49.8,39.9-90.4,89-90.4s89,40.6,89,90.5
		C-122.9,356.1-162.8,396.7-211.9,396.7z"/>
</g>
<g>
	<g>
		<g>
			<defs>
				<path id="SVGID_1_" d="M-211.8,397.7c-49.1,0-89-40.6-89-90.5c0-49.8,40-90.4,89-90.4c49.1,0,89,40.6,89,90.5
					C-122.8,357.1-162.7,397.7-211.8,397.7z"/>
			</defs>
			<clipPath id="SVGID_2_">
				<use xlink:href="#SVGID_1_"  style="overflow:visible;"/>
			</clipPath>
			<path class="st1" d="M-175.1,259.3l50.2,70.5c0,0-18.4,80.4-85.4,67.9s-1.5,0-1.5,0l-49.1-49.1v-52l25.9-22.3L-175.1,259.3z"/>
		</g>
	</g>
	<g>
		<path class="st2" d="M-204.9,351h-56c-1.4,0-2.6-1.2-2.6-2.6v-59l29.3-32.2l29.3,32.2C-204.9,289.4-204.9,351-204.9,351z"/>
		<path class="st3" d="M-158.4,348.4c0,1.4-1.2,2.6-2.6,2.6h-43.8v-62.9h46.4V348.4z"/>
		<path class="st4" d="M-151.4,288.3c0.4,0.5,0.5,1.2,0.2,1.8s-0.9,1-1.5,1h-47.7l-26.3-32.4h49.2c1.5,0,2.9,0.7,3.9,1.9
			L-151.4,288.3z"/>
		<path class="st5" d="M-173.6,260.6c-0.4-0.5-0.9-0.9-1.5-1.3l-27.7,28.7l2.5,3h47.7c0.6,0,1.2-0.4,1.5-1s0.2-1.3-0.2-1.8
			L-173.6,260.6z"/>
		<path class="st5" d="M-200.1,295c-0.3,0.3-0.7,0.5-1.2,0.5c-0.4,0-0.9-0.2-1.2-0.5l-30.5-30.6c-0.3-0.3-0.7-0.5-1.1-0.5
			c-0.4,0-0.8,0.2-1.1,0.5l-30.7,30.6c-0.7,0.7-1.7,0.7-2.4,0l-3.7-3.7c-0.3-0.3-0.5-0.7-0.5-1.2c0-0.4,0.2-0.9,0.5-1.2l35.7-35.7
			c1.2-1.2,3-1.2,4.2,0l35.7,35.7c0.7,0.7,0.7,1.7,0,2.4L-200.1,295z"/>
		<rect x="-246.5" y="314.5" class="st4" width="24.5" height="36.5"/>
		<circle class="st6" cx="-240.8" cy="332" r="2.8"/>
		<path class="st7" d="M-223,296h-22.4v-7.3c0-6.2,5-11.2,11.2-11.2l0,0c6.2,0,11.2,5,11.2,11.2C-223,288.7-223,296-223,296z"/>
		<path class="st8" d="M-170.5,317.5h-22.4v-7.3c0-6.2,5-11.2,11.2-11.2c6.2,0,11.2,5,11.2,11.2V317.5z"/>
		<path class="st7" d="M-218.4,317.5c0,0.7-0.5,1.2-1.2,1.2h-29.2c-0.7,0-1.2-0.5-1.2-1.2v-2.2c0-0.7,0.5-1.2,1.2-1.2h29.1
			c0.7,0,1.2,0.5,1.2,1.2v2.2H-218.4z"/>
		<path class="st9" d="M-166.4,319.7c0,0.4-0.3,0.7-0.7,0.7h-29.1c-0.4,0-0.7-0.3-0.7-0.7v-1.9c0-0.4,0.3-0.7,0.7-0.7h29.1
			c0.4,0,0.7,0.3,0.7,0.7V319.7z"/>
		<polygon class="st5" points="-221.9,314.5 -228.4,314.5 -246.5,333.2 -246.5,351 -221.9,351 		"/>
		<path class="st10" d="M-219.6,318.7c0.7,0,1.2-0.5,1.2-1.2v-2.2c0-0.7-0.5-1.2-1.2-1.2h-8.4l-4.5,4.7h12.9V318.7z"/>
		<path class="st5" d="M-202.5,295c0.3,0.3,0.7,0.5,1.2,0.5c0.4,0,0.9-0.2,1.2-0.5l3.7-3.7c0.7-0.7,0.7-1.7,0-2.4l-3.7-3.7l-6,6.2
			L-202.5,295z"/>
	</g>
</g>
<circle class="st11" cx="-149.7" cy="361.2" r="33.8"/>
<g class="st12">
	<path class="st13" d="M-132.8,361v16.6c0,0.8-0.3,1.4-0.8,2s-1.2,0.8-2,0.8h-27.7c-0.8,0-1.4-0.3-2-0.8c-0.5-0.5-0.8-1.2-0.8-2V361
		c0-0.8,0.3-1.4,0.8-2c0.5-0.5,1.2-0.8,2-0.8h0.9v-5.5c0-3.5,1.3-6.6,3.8-9.1c2.5-2.5,5.6-3.8,9.1-3.8c3.5,0,6.6,1.3,9.1,3.8
		c2.5,2.5,3.8,5.6,3.8,9.1v5.5h0.9c0.8,0,1.4,0.3,2,0.8C-133.1,359.5-132.8,360.2-132.8,361z M-156.8,358.2h14.8v-5.5
		c0-2-0.7-3.8-2.2-5.2s-3.2-2.2-5.2-2.2c-2,0-3.8,0.7-5.2,2.2c-1.4,1.4-2.2,3.2-2.2,5.2V358.2z"/>
</g>
</svg>
