<?xml version="1.0" standalone="yes"?>

<svg version="1.1" viewBox="0.0 0.0 35.0 35.0" fill="none" stroke="none" stroke-linecap="square" stroke-miterlimit="10" xmlns="http://www.w3.org/2000/svg" xmlns:xlink="http://www.w3.org/1999/xlink"><clipPath id="p.0"><path d="m0 0l35.0 0l0 35.0l-35.0 0l0 -35.0z" clip-rule="nonzero"></path></clipPath><g clip-path="url(#p.0)"><path fill="#000000" fill-opacity="0.0" d="m0 0l35.0 0l0 35.0l-35.0 0z" fill-rule="nonzero"></path><path fill="#000000" fill-opacity="0.0" d="m0.003937008 -0.09186352l34.992126 0l0 35.1811l-34.992126 0z" fill-rule="nonzero"></path><path fill="#434343" d="m0.46718976 12.04859l0 0c0 -1.8496828 1.4994648 -3.3491478 3.3491483 -3.3491478l23.25446 0c0.88825035 0 1.740118 0.35285568 2.368206 0.9809427c0.6280861 0.62808704 0.9809418 1.4799557 0.9809418 2.368205l0 13.396193c0 1.8496838 -1.499464 3.3491478 -3.3491478 3.3491478l-23.25446 0c-1.8496835 0 -3.3491483 -1.499464 -3.3491483 -3.3491478z" fill-rule="nonzero"></path><path fill="#666666" d="m12.741181 12.36021l9.732284 0l0 1.7322836l-9.732284 0z" fill-rule="nonzero"></path><path fill="#666666" d="m2.8781526 12.36021l8.0 0l0 7.874016l-8.0 0z" fill-rule="nonzero"></path><path fill="#ffffff" d="m5.2476487 15.820286l0 0c0 -0.9306221 0.7544179 -1.6850395 1.6850395 -1.6850395l0 0c0.44690037 0 0.8754964 0.17753029 1.191503 0.49353695c0.3160057 0.3160057 0.493536 0.7446022 0.493536 1.1915026l0 0c0 0.9306221 -0.7544174 1.6850395 -1.685039 1.6850395l0 0c-0.9306216 0 -1.6850395 -0.7544174 -1.6850395 -1.6850395z" fill-rule="nonzero"></path><path fill="#ffffff" d="m5.5359244 18.082937l2.9079719 0l0 0c0.24505138 0 0.48006535 0.09734535 0.6533432 0.27062416c0.1732769 0.1732769 0.2706232 0.40829086 0.2706232 0.6533432l0 1.1862698c0 2.0980835E-5 -1.7166138E-5 3.8146973E-5 -3.9100647E-5 3.8146973E-5l-4.755866 -3.8146973E-5l0 0c-2.193451E-5 0 -3.9577484E-5 -1.9073486E-5 -3.9577484E-5 -4.005432E-5l3.9577484E-5 -1.1862297l0 0c0 -0.51029396 0.41367388 -0.92396736 0.9239669 -0.92396736z" fill-rule="nonzero"></path><path fill="#666666" d="m12.741181 15.422698l8.818898 0l0 1.7322836l-8.818898 0z" fill-rule="nonzero"></path><path fill="#666666" d="m12.741181 18.274529l9.732284 0l0 1.7322826l-9.732284 0z" fill-rule="nonzero"></path><path fill="#666666" d="m2.8781526 21.660221l22.834646 0l0 1.7322826l-22.834646 0z" fill-rule="nonzero"></path><path fill="#666666" d="m2.8781526 24.50946l13.448818 0l0 1.7322845l-13.448818 0z" fill-rule="nonzero"></path><path fill="#434343" d="m29.990625 6.203142l4.544142 4.5453386l-13.632425 13.636016l-4.544142 -4.5453396z" fill-rule="nonzero"></path><path stroke="#ffffff" stroke-width="1.0" stroke-linejoin="round" stroke-linecap="butt" d="m29.990625 6.203142l4.544142 4.5453386l-13.632425 13.636016l-4.544142 -4.5453396z" fill-rule="nonzero"></path><path fill="#434343" d="m20.852516 24.434336l-5.907384 1.3636017l1.3632421 -5.9089413z" fill-rule="nonzero"></path><path stroke="#ffffff" stroke-width="1.0" stroke-linejoin="round" stroke-linecap="butt" d="m20.852516 24.434336l-5.907384 1.3636017l1.3632421 -5.9089413z" fill-rule="nonzero"></path></g></svg>

